<?xml version="1.0" encoding="UTF-8"?>
<svg id="Layer_1" xmlns="http://www.w3.org/2000/svg" version="1.1" viewBox="0 0 100 100">
  <!-- Generator: Adobe Illustrator 29.3.1, SVG Export Plug-In . SVG Version: 2.1.0 Build 151)  -->
  <defs>
    <style>
      .st0 {
        fill: #fff;
      }
    </style>
  </defs>
  <path class="st0" d="M50,0C22.4,0,0,22.4,0,50s22.4,50,50,50,50-22.4,50-50S77.6,0,50,0ZM50,8c23.2,0,42,18.8,42,42s-18.8,42-42,42S8,73.2,8,50,26.8,8,50,8ZM50,10c-22.1,0-40,17.9-40,40s17.9,40,40,40,40-17.9,40-40S72.1,10,50,10ZM50,12c21,0,38,17,38,38s-3.2,17.4-8.5,23.9c-2-6.4-6.5-13.1-12.4-17.9-4.5,4.2-10.5,6.7-17.1,6.7s-12.6-2.5-17.1-6.7c-5.9,4.8-10.4,11.5-12.4,17.9-5.3-6.5-8.5-14.9-8.5-23.9,0-21,17-38,38-38h0ZM50,18c-10.8,0-19.6,8.8-19.6,19.6h0c0,10.8,8.8,19.6,19.6,19.6h0c10.8,0,19.6-8.8,19.6-19.6h0c0-10.8-8.8-19.6-19.6-19.6Z"/>
</svg>