<?xml version="1.0" encoding="UTF-8"?>
<svg id="Layer_1" xmlns="http://www.w3.org/2000/svg" version="1.1" viewBox="0 0 100 100">
  <!-- Generator: Adobe Illustrator 29.3.1, SVG Export Plug-In . SVG Version: 2.1.0 Build 151)  -->
  <defs>
    <style>
      .st0 {
        fill: #fff;
      }
    </style>
  </defs>
  <path class="st0" d="M90,10s-11.6,6.9-16.9,11c-8.2,6.3-15.1,14-22.9,20.8-3.4,3-6.7,6.1-10.4,8.8-2.3,1.7-7,4.7-7,4.7v5.9c-.1,0-7.8-7.6-7.8-7.6-1.7-1.7-4.4-1.7-6.1,0-1.7,1.7-1.7,4.4,0,6.1l7.7,7.7-15.3,15.3c-1.7,1.7-1.7,4.4,0,6.1,1.7,1.7,4.4,1.7,6.1,0l15.3-15.3,7.7,7.7c1.7,1.7,4.4,1.7,6.1,0,1.7-1.7,1.7-4.4,0-6.1l-7.7-7.7h6s3-4.8,4.7-7.1c2.7-3.6,5.8-7,8.8-10.4,6.8-7.7,14.5-14.7,20.8-22.9,4.1-5.3,11-16.9,11-16.9h0Z"/>
</svg>