<?xml version="1.0" encoding="UTF-8"?>
<svg id="Layer_2" data-name="Layer 2" xmlns="http://www.w3.org/2000/svg" viewBox="0 0 750.01 800.01">
  <defs>
    <style>
      .cls-1 {
        fill: #fff;
      }
    </style>
  </defs>
  <g id="Layer_1-2" data-name="Layer 1">
    <path class="cls-1" d="M166.8,336.03L1.88,579.61c-4.81,7.81.16,17.97,9.27,18.97l325.41,34.48-169.75-297.03h0ZM11.58,492.86l117.64-191.17L9.47,229.84c-4.17-2.5-9.47.5-9.47,5.36v254.39c0,6.3,8.27,8.64,11.58,3.27ZM28.52,661.88l303.75,136.97c8.28,3.83,17.73-2.23,17.73-11.34v-102.61l-318.05-34.84c-6.95-.78-9.73,8.73-3.44,11.83h0ZM155.42,259.09l124.89-223.34c6.78-11.03-5.61-23.83-16.84-17.41L27.83,172.42c-3.86,2.53-3.73,8.22.2,10.59l127.39,76.08h0ZM375,275h170.64L396.3,11.91c-4.89-7.94-13.09-11.91-21.3-11.91s-16.41,3.97-21.3,11.91l-149.34,263.09h170.64ZM740.53,229.84l-119.75,71.86,117.64,191.17c3.3,5.38,11.58,3.03,11.58-3.28v-254.39c0-4.86-5.3-7.86-9.47-5.36ZM594.58,259.09l127.39-76.09c3.95-2.37,4.06-8.06.2-10.59L486.53,18.34c-11.23-6.42-23.62,6.37-16.84,17.41l124.89,223.34ZM718.05,650.05l-318.05,34.83v102.61c0,9.12,9.45,15.17,17.73,11.34l303.75-136.97c6.3-3.08,3.52-12.59-3.44-11.81h0ZM583.2,336.03l-169.73,297.03,325.41-34.48c9.11-1.02,14.08-11.16,9.27-18.97l-164.94-243.58h0ZM375,325h-156.92l156.92,274.61,156.92-274.61h-156.92Z"/>
  </g>
</svg>