<?xml version="1.0" encoding="UTF-8"?>
<svg id="Layer_1" xmlns="http://www.w3.org/2000/svg" version="1.1" viewBox="0 0 100 100">
  <!-- Generator: Adobe Illustrator 29.3.1, SVG Export Plug-In . SVG Version: 2.1.0 Build 151)  -->
  <defs>
    <style>
      .st0 {
        fill: #fff;
      }
    </style>
  </defs>
  <path class="st0" d="M25.3,67.3h50.5v33.8H25.3v-33.8ZM0,90.2v-33.6l23.3,10.3v33.8L0,90.2ZM78,66.8l23-10.5v33.9l-23,10.3v-33.7ZM17.1,62c-.3-.8,4.3-7,8-10.8l3.8-3.9,2,1.8c2.5,2.2,8.5,5.1,12.4,6,3.8.9,10.7.9,14.5,0,3.8-.9,9.9-3.9,12.4-6l2-1.8,3.8,3.9c3.6,3.7,8.3,10,8,10.7l-7.2,3.6H24.2s-7.1-3.6-7.1-3.6ZM46.9,48.7c-9.6-1.5-17.5-8.5-20.3-17.9-1-3.3-1-9.5,0-12.8,1.9-6.5,6.5-12.2,12-15.1C43,.7,45.9,0,50.5,0,57.3,0,63.1,2.4,67.9,7.1c4.7,4.7,7.2,10.6,7.2,17.3s-.7,7.5-3,11.7c-4.5,8.7-15.4,14.1-25.2,12.6h0Z"/>
</svg>