<svg width="42" height="42" viewBox="0 0 42 42" fill="none" xmlns="http://www.w3.org/2000/svg">
<path fill-rule="evenodd" clip-rule="evenodd" d="M19.25 5.25C15.537 5.25 11.976 6.725 9.3505 9.3505C6.725 11.976 5.25 15.537 5.25 19.25C5.25 22.963 6.725 26.524 9.3505 29.1495C11.976 31.775 15.537 33.25 19.25 33.25C22.9124 33.25 26.4268 31.815 29.0415 29.2563C29.0738 29.2179 29.1081 29.1805 29.1443 29.1443C29.1805 29.1081 29.2179 29.0738 29.2563 29.0415C31.815 26.4268 33.25 22.9124 33.25 19.25C33.25 15.537 31.775 11.976 29.1495 9.3505C26.524 6.725 22.963 5.25 19.25 5.25ZM32.7998 30.3249C35.3432 27.2135 36.75 23.3043 36.75 19.25C36.75 14.6087 34.9063 10.1575 31.6244 6.87563C28.3425 3.59374 23.8913 1.75 19.25 1.75C14.6087 1.75 10.1575 3.59374 6.87563 6.87563C3.59374 10.1575 1.75 14.6087 1.75 19.25C1.75 23.8913 3.59374 28.3425 6.87563 31.6244C10.1575 34.9063 14.6087 36.75 19.25 36.75C23.3043 36.75 27.2135 35.3432 30.3249 32.7998L37.2626 39.7374C37.946 40.4209 39.054 40.4209 39.7374 39.7374C40.4209 39.054 40.4209 37.946 39.7374 37.2626L32.7998 30.3249Z" fill="white"/>
</svg>
