<?xml version="1.0" encoding="UTF-8"?>
<svg id="Layer_1" xmlns="http://www.w3.org/2000/svg" version="1.1" viewBox="0 0 100 100">
  <!-- Generator: Adobe Illustrator 29.3.1, SVG Export Plug-In . SVG Version: 2.1.0 Build 151)  -->
  <defs>
    <style>
      .st0 {
        fill: #fff;
      }
    </style>
  </defs>
  <path class="st0" d="M100,0l-31.2,17.8-2.4,9.8-12.9,11.6,3.8,3.5L100,0h0s0,0,0,0ZM100,0l-42.7,42.7,3.5,3.8,11.6-12.9,9.8-2.4L100,0h0ZM52.3,43.5L.9,94.9h0C.3,95.4,0,96.2,0,97c0,1.7,1.3,3,3,3,.8,0,1.6-.3,2.1-.9h0s51.4-51.4,51.4-51.4l-2.1-2.2s-2.2-2-2.2-2Z"/>
</svg>