<?xml version="1.0" encoding="UTF-8"?>
<svg id="Layer_1" xmlns="http://www.w3.org/2000/svg" version="1.1" viewBox="0 0 100 100">
  <!-- Generator: Adobe Illustrator 29.3.1, SVG Export Plug-In . SVG Version: 2.1.0 Build 151)  -->
  <defs>
    <style>
      .st0 {
        fill: #fff;
      }
    </style>
  </defs>
  <path class="st0" d="M61.2,0s0,0,0,0c0,.3-.3,1.4-.5,2.5-.7,3.4-1.7,5.9-2.6,6.8-1.1,1-4.2,2.1-8,2.8l-1.9.3,1.9.4c3.8.7,6.5,1.6,7.7,2.6,1.3,1.1,2.4,3.8,3.1,7.9.1.7.3,1.4.3,1.7h0c0,.3.3-.4.7-2.2.6-3.2,1.4-5.4,2.2-6.5,1-1.4,3.6-2.5,8.1-3.4l2.3-.4-1.3-.2c-2.8-.5-5.8-1.4-7.1-2-1.2-.6-1.5-.9-2.1-1.8-.8-1.3-1.5-3.5-2.1-6.6C61.4.6,61.3,0,61.2,0h0ZM25.5,14.5s0,0,0,0c0,.2-.3,1.2-.5,2.2-.6,3-1.4,5.1-2.3,5.9-1,.9-3.6,1.8-6.9,2.4l-1.6.3,1.6.3c3.3.6,5.6,1.4,6.6,2.2,1.1.9,2.1,3.3,2.7,6.8.1.6.2,1.2.3,1.5,0,.3.3-.3.6-1.9.6-2.7,1.2-4.6,1.9-5.6.8-1.2,3.1-2.2,7-2.9l2-.4-1.1-.2c-2.4-.4-5-1.2-6.1-1.8-1-.5-1.3-.7-1.8-1.6-.7-1.1-1.3-3.1-1.8-5.7-.2-1.1-.4-1.6-.5-1.6h0ZM47,26.3c-3.3,0-5.9,2.6-5.9,6v38.8c0,.3-.2.6-.5.8-.3.2-.6,0-.9-.2l-6-6c-2-2-5.2-2.3-7.6-.7-1.4.9-2.3,2.5-2.6,4.1-.2,1.7.2,3.4,1.3,4.7l15,18.1c1.7,2,2.4,5.1,3,8.1h39.5c2.2-6.2,3.5-15.7,3.5-19.5v-18.7c0-3.3-2.6-5.9-5.8-5.9s-4,1.1-5,2.8v-.2c0-3.3-2.6-6-6-6s-4,1.1-5,2.8v-.2c0-3.3-2.6-6-6-6s-4,1.1-5,2.8v-19.8c0-1.5-.6-3.1-1.7-4.2-1-1.2-2.5-1.7-4.1-1.7h0ZM67.8,29.9s0,0,0,0c0,.2-.2,1-.4,1.7-.5,2.3-1.1,4-1.8,4.6-.8.7-2.8,1.4-5.4,1.9l-1.3.2,1.3.2c2.5.5,4.4,1.1,5.2,1.7.9.7,1.6,2.6,2.1,5.3,0,.4.2,1,.2,1.1h0c0,.2.2-.3.4-1.5.4-2.1.9-3.6,1.5-4.4.7-.9,2.4-1.7,5.4-2.3l1.5-.3-.9-.2c-1.9-.3-3.9-.9-4.8-1.4-.8-.4-1-.6-1.4-1.2-.5-.9-1-2.4-1.4-4.5-.2-.9-.3-1.3-.4-1.3h0Z"/>
</svg>