<?xml version="1.0" encoding="UTF-8"?>
<svg id="Layer_1" xmlns="http://www.w3.org/2000/svg" version="1.1" viewBox="0 0 32 40">
  <!-- Generator: Adobe Illustrator 29.3.1, SVG Export Plug-In . SVG Version: 2.1.0 Build 151)  -->
  <path d="M27.9,7.8c-2.5.3-3.1,1-3.5,3.5,0,.1-.2.1-.2,0-.3-2.5-1-3.1-3.5-3.5-.1,0-.1-.2,0-.2,2.4-.3,3.1-1,3.5-3.4,0-.1.2-.1.2,0,.4,2.4,1,3.1,3.5,3.4.1,0,.1.2,0,.2Z"/>
  <path d="M15,7.8c-2.5.3-3.1,1-3.5,3.5,0,.1-.2.1-.2,0-.3-2.5-1-3.1-3.5-3.5-.1,0-.1-.2,0-.2,2.4-.3,3.1-1,3.5-3.4,0-.1.2-.1.2,0,.4,2.4,1,3.1,3.5,3.4.1,0,.1.2,0,.2Z"/>
  <path d="M27,18.8c-1.8.3-2.3.8-2.6,2.6,0,.1-.2.1-.2,0-.3-1.9-.8-2.3-2.6-2.6-.1,0-.1-.2,0-.2,1.8-.3,2.3-.8,2.6-2.6,0-.1.2-.1.2,0,.3,1.8.8,2.3,2.6,2.6.1,0,.1.2,0,.2Z"/>
  <path d="M18,13.1c.1,0,.3.2.5.4.2.2.3.3.4.5l-2.5,2.5c-.1,0-.3-.2-.5-.4-.2-.2-.3-.3-.4-.5l2.5-2.5ZM18.3,11.4c-.2,0-.4.2-.6.3l-13.4,13.4c-.3.3-.4.6-.3.9.1.4.4.8.8,1.2.4.4.8.7,1.2.8,0,0,.2,0,.3,0,.2,0,.4-.2.6-.3l13.4-13.4c.3-.3.4-.6.3-.9-.1-.4-.4-.8-.8-1.2-.4-.4-.8-.7-1.2-.8,0,0-.2,0-.3,0Z"/>
</svg>