<?xml version="1.0" encoding="UTF-8"?>
<svg id="Layer_1" xmlns="http://www.w3.org/2000/svg" version="1.1" xmlns:xlink="http://www.w3.org/1999/xlink" viewBox="0 0 64 85">
  <!-- Generator: Adobe Illustrator 29.3.1, SVG Export Plug-In . SVG Version: 2.1.0 Build 151)  -->
  <defs>
    <style>
      .st0 {
        fill: url(#linear-gradient);
      }
    </style>
    <linearGradient id="linear-gradient" x1="7.7" y1="10.2" x2="46.4" y2="77.2" gradientUnits="userSpaceOnUse">
      <stop offset="0" stop-color="#cfa058"/>
      <stop offset="1" stop-color="#854707"/>
    </linearGradient>
  </defs>
  <path class="st0" d="M32,57c2.9,0,5.6-.7,8-2v2.5l22.6,6.5c2.2.7,1.6,3.9-.6,3.9H2c-2.3,0-2.8-3.2-.6-3.9l22.6-6.5v-2.5c2.4,1.3,5.1,2,8,2ZM32,42c5.1,0,9.8-.4,13.9-1.3-.7,7.6-6.3,13.3-13.9,13.3s-13.2-5.7-13.9-13.3c4.1.9,8.8,1.3,13.9,1.3ZM27.4.5c8.9,8.2,14.5,16.2,16.6,23.9v1c-.7,3.3-4.5,4.6-11,4.6s-10.2-1.1-12.5-3.7c-.6-.7-.7-1.6-.2-2.4,3.1-5.1,4.4-12.3,3.7-21.8-.1-1.8,2-2.8,3.4-1.6ZM18.8,20.3c-.3.8-.7,1.5-1.1,2.1-1.1,1.9-.9,4.3.5,5.9,2.9,3.3,7.8,4.7,14.7,4.7s12.8-1.9,13.9-6.9c.2-.8.2-1.6,0-2.4-.3-1.1-.7-2.2-1.1-3.3,7.5,1.6,12.3,4.6,12.3,8.6,0,6.1-11.6,10-26,10s-26-3.9-26-10,5-7.1,12.8-8.7Z"/>
</svg>